<?xml version="1.0" standalone="no"?>
<!DOCTYPE svg PUBLIC "-//W3C//DTD SVG 20010904//EN"
 "http://www.w3.org/TR/2001/REC-SVG-20010904/DTD/svg10.dtd">
<svg version="1.0" xmlns="http://www.w3.org/2000/svg"
 width="256.000000pt" height="256.000000pt" viewBox="0 0 256.000000 256.000000"
 preserveAspectRatio="xMidYMid meet">
<metadata>
Created by potrace 1.11, written by Peter Selinger 2001-2013
</metadata>
<g transform="translate(0.000000,256.000000) scale(0.100000,-0.100000)"
fill="#000000" stroke="none">
<path d="M0 1280 l0 -1280 1280 0 1280 0 0 1280 0 1280 -1280 0 -1280 0 0
-1280z m1902 890 c20 -6 48 -24 62 -41 l26 -31 0 -621 c0 -609 0 -621 -21
-664 -46 -94 -155 -153 -301 -161 -77 -4 -92 -2 -141 21 -71 32 -92 68 -84
143 14 140 137 242 311 260 106 11 101 -11 104 388 2 370 1 379 -52 405 -25
12 -62 8 -325 -34 -163 -26 -308 -53 -322 -61 -38 -19 -76 -68 -88 -112 -6
-21 -13 -236 -17 -502 l-6 -465 -25 -52 c-42 -90 -153 -164 -294 -198 -208
-49 -349 19 -349 168 0 94 104 224 227 283 52 25 71 29 180 32 95 3 125 8 135
20 10 12 14 125 18 501 6 539 4 527 73 588 46 41 71 46 482 98 403 51 361 47
407 35z"/>
</g>
</svg>
